GIL08_free1_RRA_states
nRows=6
nColumns=47

# SIMM Motion File Header:
name GIL08_free1_RRA_states
datacolumns 47
datarows 6
otherdata 1
range 0.40150000000000019000 0.40400000000000019000
endheader
time	pelvis_tx	pelvis_ty	pelvis_tz	pelvis_tilt	pelvis_list	pelvis_rotation	hip_flexion_r	hip_adduction_r	hip_rotation_r	knee_angle_r	ankle_angle_r	subtalar_angle_r	mtp_angle_r	hip_flexion_l	hip_adduction_l	hip_rotation_l	knee_angle_l	ankle_angle_l	subtalar_angle_l	mtp_angle_l	lumbar_extension	lumbar_bending	lumbar_rotation	pelvis_tx_u	pelvis_ty_u	pelvis_tz_u	pelvis_tilt_u	pelvis_list_u	pelvis_rotation_u	hip_flexion_r_u	hip_adduction_r_u	hip_rotation_r_u	knee_angle_r_u	ankle_angle_r_u	subtalar_angle_r_u	mtp_angle_r_u	hip_flexion_l_u	hip_adduction_l_u	hip_rotation_l_u	knee_angle_l_u	ankle_angle_l_u	subtalar_angle_l_u	mtp_angle_l_u	lumbar_extension_u	lumbar_bending_u	lumbar_rotation_u
      0.40150000000000019000	      1.61959151435828660000	      0.96735937995760757000	     -0.24227605820189105000	      4.14762474803197900000	     -0.46939207311717140000	      0.14786684047133089000	     19.05776521311051000000	     -0.35951705406546763000	      5.94523633131464900000	    -38.47417222735066400000	      8.44838547800258690000	     -0.00000000000000322458	      0.00000000000000210824	     -8.37823853940389540000	      0.92204496377699052000	      9.88690363549295090000	     -8.77574915805926460000	     11.21411576281230200000	      0.00000000000002668014	     -0.00000000000008335712	     -9.46040651482333320000	     -0.33413112868384010000	      9.41206353123468810000	      1.04781806095083670000	     -0.10626080957021504000	     -0.01191067337248308400	      5.57324197557224550000	    -20.97482659630279000000	     33.64120579954988700000	     42.59660777427809800000	     18.89300818942823000000	    -33.16614635420492600000	    228.20787340234213000000	      8.46298278991085160000	     -0.00000000000001930259	      0.00000000000001887921	    -87.31148169102931400000	    -27.59379455071881900000	     36.92756514828273100000	     17.29050147768559100000	     49.71228307072686900000	      0.00000000000021304492	     -0.00000000000114198505	     -7.56728467310510130000	     31.60304625284307500000	      1.74321234282145100000
      0.40200000000000019000	      1.62011551999906690000	      0.96730605748245535000	     -0.24228209122304678000	      4.15041987598589660000	     -0.47985911395597403000	      0.16471086212882430000	     19.07897738497004900000	     -0.35015823426660464000	      5.92847434031642170000	    -38.35998303860842600000	      8.45246132487397440000	     -0.00000000000000323417	      0.00000000000000211783	     -8.42189066115373030000	      0.90827280013744793000	      9.90537545065722820000	     -8.76713646670737920000	     11.23895217952582100000	      0.00000000000002678624	     -0.00000000000008392770	     -9.46418480102408740000	     -0.31832627970244637000	      9.41282817283575750000	      1.04820467393877650000	     -0.10702867247181792000	     -0.01222222053850367600	      5.60737903130891980000	    -20.89305836571458400000	     33.73498959040527000000	     42.25212320965788100000	     18.54185000968127300000	    -33.88264410594137400000	    228.54801022434384000000	      7.84023104218865980000	     -0.00000000000001928037	      0.00000000000002116538	    -87.29716738082646500000	    -27.49461194093051800000	     36.95846281891974200000	     17.16025576650950100000	     49.63336676685069200000	      0.00000000000021169504	     -0.00000000000110579438	     -7.54596389619143700000	     31.61621600000585600000	      1.31513080058956830000
      0.40250000000000019000	      1.62063971919557440000	      0.96725235170082458000	     -0.24228828121597773000	      4.15323223314419110000	     -0.49028484989184529000	      0.18160193625721716000	     19.10001738452177400000	     -0.34097561939256504000	      5.91135289625160980000	    -38.24562508487942100000	      8.45622554855927260000	     -0.00000000000000324397	      0.00000000000000212862	     -8.46553586692231970000	      0.89455060000908682000	      9.92386085875085830000	     -8.75858890483042530000	     11.26374909321625900000	      0.00000000000002689268	     -0.00000000000008448882	     -9.46795258068690340000	     -0.30251505445380694000	      9.41337845509032610000	      1.04859226655827810000	     -0.10779404025710773000	     -0.01253852865818976800	      5.64215255689940690000	    -20.80960067939797400000	     33.82941047317200400000	     41.90792823260013500000	     18.18820020876046700000	    -34.60388657644222800000	    228.88294013532325000000	      7.21651715289144490000	     -0.00000000000002028323	      0.00000000000002229964	    -87.28381394844134900000	    -27.39394040063151800000	     36.98192310383947000000	     17.02999505730236500000	     49.55423163814337800000	      0.00000000000020541865	     -0.00000000000115333344	     -7.52525498381702370000	     31.62853510381117400000	      0.88580807879567458000
      0.40300000000000019000	      1.62116411241918510000	      0.96719826385425933000	     -0.24229463052920538000	      4.15606213046830140000	     -0.50066843076507517000	      0.19854037677493333000	     19.12088536815657800000	     -0.33197044073284637000	      5.89386969904057880000	    -38.13110096607839200000	      8.45967769967164250000	     -0.00000000000000325375	      0.00000000000000213935	     -8.50917463061169780000	      0.88087910722663365000	      9.94235612943824520000	     -8.75010647615332720000	     11.28850637983394000000	      0.00000000000002699085	     -0.00000000000008506265	     -9.47171015516246050000	     -0.28669789343160307000	      9.41371379010488950000	      1.04898078006451920000	     -0.10855693471341643000	     -0.01285950138111299800	      5.67753760247454850000	    -20.72443986444076500000	     33.92445626385333700000	     41.56406339562244800000	     17.83211078585662800000	    -35.32965632318708800000	    229.21266399483645000000	      6.59194991822791550000	     -0.00000000000001912344	      0.00000000000002069492	    -87.27139360983186100000	    -27.29178402968868200000	     36.99791738424978900000	     16.89970756245382300000	     49.47490785446925100000	      0.00000000000017302912	     -0.00000000000109900876	     -7.50514103405393480000	     31.63996118252627800000	      0.45534103903119455000
      0.40350000000000019000	      1.62168870011949970000	      0.96714379517434490000	     -0.24230114147831144000	      4.15890986836201290000	     -0.51100900385655812000	      0.21552649450084341000	     19.14158150972070900000	     -0.32314390625040584000	      5.87602252210005280000	    -38.01641328821235500000	      8.46281737389845110000	     -0.00000000000000326308	      0.00000000000000215028	     -8.55280741109627130000	      0.86725906258950047000	      9.96085752797230480000	     -8.74168920425939260000	     11.31322397856529300000	      0.00000000000002708025	     -0.00000000000008561577	     -9.47545781787893660000	     -0.27087524895418807000	      9.41383362142891580000	      1.04937015627169750000	     -0.10931737879050415000	     -0.01318503947299275200	      5.71350832207121510000	    -20.63756374468737700000	     34.02011385040543000000	     41.22056975761457000000	     17.47363590396609800000	    -36.05973200250642200000	    229.53718350786608000000	      5.96663598260549310000	     -0.00000000000001773432	      0.00000000000002249185	    -87.25987670441111300000	    -27.18814810797662700000	     37.00642268798999600000	     16.76937834656814300000	     49.39544837942910500000	      0.00000000000018047312	     -0.00000000000110354469	     -7.48560408991655460000	     31.65045314108827400000	      0.02382628966121161000
      0.40400000000000019000	      1.62221348270964660000	      0.96708894688000968000	     -0.24230781631321563000	      4.16177573217602960000	     -0.52130570651689678000	      0.23256059049027042000	     19.16210600643972800000	     -0.31449719357830214000	      5.85780928658170460000	    -37.90156464955605700000	      8.46564422890744340000	     -0.00000000000000327188	      0.00000000000000216123	     -8.59643465304613490000	      0.85369120493978667000	      9.97936130008187840000	     -8.73333710693490950000	     11.33790181065203700000	      0.00000000000002716866	     -0.00000000000008616672	     -9.47919585251840860000	     -0.25504760288483785000	      9.41373745771033300000	      1.04976033714387910000	     -0.11007539466611001000	     -0.01351504437736687200	      5.75003932087092820000	    -20.54895976465277800000	     34.11637049473620900000	     40.87748768908247100000	     17.11282895880615100000	    -36.79388948680226400000	    229.85650070057193000000	      5.34068235434541630000	     -0.00000000000001796106	      0.00000000000002108955	    -87.24923421317799900000	    -27.08303737099732800000	     37.00741567746651100000	     16.63899459521774600000	     49.31588285157170000000	      0.00000000000015910637	     -0.00000000000106400283	     -7.46662677563757440000	     31.65996950816146000000	     -0.40864002180485265000
